<?xml version="1.0" standalone="no"?>
<!DOCTYPE svg PUBLIC "-//W3C//DTD SVG 20010904//EN"
 "http://www.w3.org/TR/2001/REC-SVG-20010904/DTD/svg10.dtd">
<svg version="1.0" xmlns="http://www.w3.org/2000/svg"
 width="2717.000000pt" height="1063.000000pt" viewBox="0 0 2717.000000 1063.000000"
 preserveAspectRatio="xMidYMid meet">

<g transform="translate(0.000000,1063.000000) scale(0.100000,-0.100000)"
fill="#000000" stroke="none">
<path d="M2105 8470 c-55 -11 -109 -24 -120 -29 -27 -14 -104 -41 -135 -48
-14 -3 -34 -12 -45 -19 -11 -8 -29 -14 -41 -14 -12 0 -27 -6 -33 -14 -7 -8
-24 -17 -38 -21 -14 -3 -38 -19 -54 -36 -15 -16 -35 -29 -44 -29 -9 0 -30 -11
-47 -25 -16 -14 -36 -25 -44 -25 -8 0 -22 -16 -30 -35 -11 -26 -22 -37 -44
-41 -22 -5 -30 -13 -35 -35 -5 -21 -17 -35 -43 -47 -26 -12 -38 -26 -44 -50
-6 -22 -20 -40 -44 -54 -34 -20 -41 -34 -46 -93 -2 -23 -11 -34 -38 -47 -33
-17 -35 -21 -41 -83 -5 -59 -10 -70 -41 -101 -40 -39 -47 -67 -48 -204 0 -73
-4 -92 -31 -149 -32 -65 -32 -66 -21 -151 6 -47 18 -100 28 -119 12 -23 20
-73 24 -150 8 -130 13 -147 42 -157 27 -8 48 -63 48 -124 0 -37 5 -54 20 -67
11 -10 29 -26 40 -35 13 -12 20 -30 20 -52 0 -65 12 -98 41 -115 32 -18 49
-56 49 -112 0 -32 6 -42 35 -64 39 -30 49 -53 47 -108 -2 -43 12 -77 32 -77
24 0 46 -36 52 -86 9 -80 13 -92 34 -99 36 -11 50 -35 50 -83 0 -68 8 -85 43
-103 34 -17 44 -41 46 -106 1 -36 6 -44 35 -62 39 -25 46 -38 46 -91 0 -55 15
-86 44 -94 28 -7 46 -53 46 -118 0 -28 6 -41 28 -57 15 -12 33 -26 40 -31 6
-6 12 -31 12 -56 0 -45 7 -56 63 -101 9 -7 18 -34 22 -60 11 -82 15 -93 40
-103 30 -11 45 -39 45 -82 0 -54 9 -72 43 -88 30 -14 33 -20 41 -86 8 -65 12
-73 40 -90 41 -24 46 -31 46 -85 0 -25 7 -54 15 -65 8 -10 15 -16 15 -12 0 5
11 -2 25 -14 18 -16 26 -35 31 -79 6 -53 10 -60 45 -83 36 -24 38 -29 41 -83
3 -51 6 -58 32 -73 37 -20 44 -33 51 -102 6 -50 9 -57 36 -68 38 -16 49 -37
49 -94 0 -42 3 -48 40 -71 31 -19 40 -32 40 -53 0 -15 3 -44 7 -65 5 -33 11
-41 44 -54 l39 -15 0 -59 c0 -57 1 -61 34 -80 40 -23 43 -29 52 -109 6 -58 9
-63 39 -76 36 -15 45 -30 45 -77 0 -40 7 -50 45 -68 20 -9 31 -23 33 -39 6
-59 13 -72 47 -86 24 -10 36 -23 41 -42 10 -48 13 -51 45 -60 26 -6 34 -15 43
-47 9 -32 17 -40 44 -47 21 -6 36 -18 42 -32 5 -15 23 -29 43 -36 20 -6 38
-17 41 -25 5 -13 29 -28 101 -64 150 -74 406 -115 534 -84 31 7 70 13 86 13
17 0 43 7 59 15 15 8 38 15 51 15 12 0 28 7 35 15 7 8 20 15 29 15 10 0 35 13
57 30 21 16 44 30 51 30 6 0 25 11 41 25 17 14 34 25 40 25 6 0 24 18 41 39
17 21 42 42 55 45 16 4 25 15 29 35 4 20 14 31 31 35 34 8 56 33 56 61 0 17
11 30 39 46 33 18 40 28 44 63 3 23 13 45 23 51 46 27 56 42 61 89 5 37 11 51
32 63 41 26 51 44 51 93 0 50 10 67 52 93 22 14 28 27 34 73 6 54 13 65 58 97
12 9 22 33 27 68 7 43 15 60 44 87 29 27 36 41 41 86 8 63 9 65 49 88 26 15
31 23 35 72 4 40 11 60 25 70 57 41 58 43 63 100 4 45 10 61 29 76 13 10 28
20 34 22 5 2 14 32 19 68 8 57 13 69 45 95 31 27 37 39 44 89 8 55 21 76 49
76 16 0 32 42 32 86 0 28 8 44 40 75 22 22 40 41 40 42 0 1 3 27 6 57 5 53 29
90 64 102 6 2 15 32 19 68 6 45 13 67 26 74 51 31 59 43 61 94 3 59 16 88 45
97 24 8 39 43 39 92 0 29 8 42 42 74 39 35 42 42 46 99 4 56 7 63 38 83 35 23
44 42 44 94 0 42 18 81 42 89 26 8 48 56 48 106 0 50 4 56 48 87 29 20 32 27
32 73 0 46 4 55 39 88 34 33 40 45 46 96 7 51 13 64 46 95 36 33 39 40 39 89
0 48 3 55 40 89 40 36 46 54 49 154 1 10 19 35 41 54 37 34 40 40 40 90 0 62
11 89 48 120 21 18 27 34 33 90 17 149 21 406 10 588 l-11 190 -37 31 c-34 29
-37 35 -41 97 -4 64 -6 67 -43 92 -31 20 -39 31 -39 56 0 30 -26 65 -64 86
-10 5 -21 25 -25 44 -5 25 -15 38 -40 51 -19 9 -40 30 -47 46 -7 17 -22 32
-37 36 -14 3 -34 21 -46 41 -11 19 -26 35 -34 35 -7 0 -29 14 -47 30 -18 17
-39 30 -45 30 -6 0 -22 11 -35 24 -12 14 -35 28 -51 31 -15 4 -33 13 -40 21
-6 8 -20 14 -31 14 -10 0 -38 10 -61 22 -63 32 -70 35 -107 42 -19 4 -44 11
-55 16 -11 5 -49 14 -85 19 -36 5 -85 14 -110 20 -54 12 -231 7 -258 -8 -11
-6 -53 -14 -94 -17 -40 -4 -77 -10 -83 -15 -5 -4 -28 -10 -51 -13 -74 -11
-228 -72 -294 -116 -8 -6 -26 -14 -40 -20 -14 -5 -32 -14 -40 -19 -8 -6 -27
-12 -42 -15 -15 -4 -29 -15 -33 -26 -3 -10 -16 -22 -28 -26 -32 -9 -104 -55
-138 -86 -16 -16 -40 -28 -53 -28 -17 0 -26 -7 -30 -25 -4 -15 -22 -34 -46
-47 -22 -13 -42 -30 -45 -39 -3 -9 -21 -24 -40 -35 -19 -10 -39 -30 -44 -45
-6 -18 -21 -31 -45 -39 -23 -7 -36 -18 -36 -29 0 -19 -27 -48 -63 -65 -12 -6
-23 -22 -25 -34 -2 -14 -17 -30 -40 -41 -20 -11 -43 -28 -49 -40 -27 -43 -124
-35 -142 13 -6 13 -23 28 -41 34 -21 8 -34 21 -42 42 -7 20 -23 37 -46 48 -22
11 -38 26 -42 41 -4 16 -17 28 -38 35 -22 8 -39 23 -49 44 -8 17 -22 32 -29
32 -8 0 -14 5 -14 10 0 6 -7 10 -15 10 -9 0 -20 11 -25 25 -6 15 -25 32 -45
40 -19 8 -39 24 -45 35 -6 11 -26 26 -44 34 -19 8 -37 23 -40 34 -4 11 -22 24
-46 31 -22 6 -40 16 -40 21 0 11 -113 80 -133 80 -8 0 -20 7 -27 15 -17 20
-114 72 -151 80 -16 4 -29 11 -29 15 0 5 -17 12 -37 16 -21 4 -42 10 -48 14
-12 9 -58 20 -104 26 -19 3 -39 8 -45 11 -26 16 -239 50 -321 51 -50 0 -135
-8 -190 -18z m3465 -335 c14 -8 46 -14 71 -15 51 0 173 -39 236 -76 23 -13 49
-24 57 -24 9 0 26 -11 37 -24 12 -14 34 -30 50 -36 15 -7 35 -23 44 -37 9 -13
30 -29 46 -35 21 -7 32 -19 36 -39 4 -21 14 -31 39 -39 23 -8 36 -19 39 -36 3
-13 7 -35 10 -49 4 -16 17 -30 39 -39 31 -13 35 -20 41 -63 10 -80 13 -87 43
-104 19 -11 31 -27 35 -49 4 -18 7 -141 7 -274 0 -229 -8 -316 -30 -316 -25 0
-50 -42 -50 -82 0 -83 -11 -120 -41 -137 -34 -19 -49 -50 -49 -101 0 -50 -18
-90 -41 -90 -25 0 -35 -24 -42 -95 -5 -47 -11 -64 -29 -77 -54 -40 -58 -47
-58 -100 0 -52 -19 -88 -46 -88 -19 0 -34 -33 -35 -77 -2 -58 -13 -87 -38 -99
-38 -19 -44 -30 -50 -96 -5 -50 -10 -65 -27 -73 -44 -22 -54 -37 -55 -84 -1
-66 -12 -94 -39 -108 -38 -19 -50 -42 -50 -100 0 -50 -2 -54 -39 -77 -37 -24
-39 -27 -43 -87 -4 -58 -7 -65 -42 -94 -34 -28 -39 -38 -45 -91 -5 -52 -9 -61
-41 -82 -32 -22 -36 -28 -42 -89 -6 -61 -10 -69 -47 -104 -37 -33 -41 -42 -41
-83 0 -42 -3 -48 -40 -72 -38 -25 -40 -29 -40 -79 0 -55 -27 -105 -55 -105
-21 0 -35 -33 -35 -84 0 -42 -3 -48 -40 -72 -37 -25 -40 -30 -40 -73 0 -68 -9
-88 -45 -110 -29 -17 -34 -27 -40 -68 -8 -60 -15 -73 -51 -93 -25 -15 -30 -24
-35 -75 -7 -59 -31 -95 -64 -95 -8 0 -16 -22 -20 -61 -5 -41 -13 -67 -26 -78
-10 -9 -28 -24 -39 -33 -13 -12 -20 -31 -20 -55 0 -60 -10 -81 -45 -102 -27
-15 -34 -27 -39 -63 -14 -86 -18 -98 -34 -98 -29 0 -52 -31 -52 -70 0 -41 -28
-85 -60 -95 -13 -4 -20 -15 -20 -33 0 -53 -20 -97 -53 -117 -26 -16 -33 -29
-38 -64 -6 -45 -20 -61 -56 -61 -16 0 -22 -7 -25 -27 -2 -18 -15 -35 -38 -50
-19 -12 -48 -33 -65 -48 -16 -14 -35 -25 -41 -25 -6 0 -19 -9 -28 -19 -10 -11
-32 -23 -50 -27 -17 -3 -40 -13 -51 -20 -11 -8 -44 -14 -76 -14 -33 0 -59 -5
-61 -11 -7 -20 -133 -23 -230 -4 -96 18 -198 52 -198 65 0 4 -16 11 -35 14
-19 4 -39 16 -45 26 -6 11 -26 27 -45 35 -20 8 -39 25 -45 39 -5 15 -24 32
-44 40 -28 12 -35 20 -38 48 -2 26 -10 36 -35 47 -33 14 -53 52 -53 97 0 14
-12 31 -32 45 -45 31 -48 37 -48 92 0 44 -3 49 -34 68 -39 23 -47 37 -53 99
-6 48 -17 70 -39 70 -23 0 -44 43 -44 90 0 53 -7 65 -42 79 -29 11 -48 58 -48
118 0 25 -7 37 -27 50 -43 26 -53 43 -53 90 0 43 -13 65 -55 88 -12 7 -22 33
-29 75 -10 56 -16 67 -41 80 -40 20 -45 28 -45 80 0 67 -9 87 -41 100 -31 13
-35 24 -47 105 -6 38 -13 52 -31 62 -32 15 -50 49 -51 94 0 19 -7 44 -15 55
-8 10 -15 15 -15 11 0 -4 -11 4 -24 18 -17 19 -26 43 -31 86 -6 50 -11 62 -30
69 -36 14 -55 49 -55 103 0 48 -6 58 -64 104 -9 8 -18 38 -22 73 -6 53 -10 63
-35 76 -37 19 -49 43 -49 96 0 46 -22 88 -45 88 -21 0 -31 27 -38 95 -5 47
-11 64 -29 77 -52 39 -58 48 -58 93 0 54 -17 95 -40 95 -28 0 -37 20 -45 93
-6 64 -9 70 -40 88 -35 21 -45 42 -45 102 0 32 -7 44 -40 74 -31 28 -40 44
-40 68 0 62 -12 96 -37 108 -34 15 -53 57 -53 116 0 45 -3 53 -34 76 -41 31
-46 43 -52 115 -4 54 -12 67 -59 95 -12 7 -19 32 -25 89 -10 81 -19 101 -50
111 -29 9 -33 50 -32 350 l0 280 36 31 c30 25 37 40 42 80 9 83 13 91 48 112
32 19 48 52 51 106 0 5 11 11 24 13 31 4 51 21 51 42 0 22 19 41 42 41 9 0 27
14 40 30 12 17 29 30 38 30 18 0 60 35 60 50 0 5 16 12 35 16 19 3 39 12 46
20 6 7 26 16 45 20 19 3 34 10 34 15 0 4 17 11 37 15 21 4 49 14 62 23 35 23
511 22 556 -1 17 -8 48 -19 70 -22 22 -4 54 -14 70 -21 73 -33 121 -55 135
-64 8 -5 26 -14 40 -20 14 -6 32 -15 40 -20 8 -6 27 -12 41 -15 14 -3 31 -16
37 -31 7 -14 20 -25 31 -25 11 0 34 -13 51 -30 17 -16 37 -30 45 -30 7 0 24
-14 36 -31 12 -17 35 -37 51 -44 16 -6 35 -22 41 -35 7 -13 23 -27 37 -30 14
-3 31 -18 38 -34 8 -15 29 -34 47 -42 19 -7 36 -23 40 -34 4 -11 19 -27 35
-35 34 -18 60 -52 54 -70 -3 -8 8 -17 30 -25 48 -15 56 -34 56 -125 l0 -75
-45 -28 c-36 -21 -45 -32 -45 -54 0 -21 -9 -34 -40 -53 -34 -21 -40 -30 -40
-60 0 -23 -7 -38 -22 -49 -12 -8 -25 -13 -28 -11 -13 8 -32 -24 -36 -57 -5
-38 -16 -52 -54 -68 -27 -11 -30 -17 -30 -55 0 -28 -7 -51 -20 -66 -10 -13
-19 -20 -20 -16 0 4 -9 3 -20 -3 -13 -7 -21 -25 -26 -61 -5 -40 -12 -54 -33
-66 -42 -27 -51 -44 -51 -99 0 -54 -6 -63 -64 -99 -11 -7 -18 -32 -22 -85 -7
-74 -23 -110 -50 -110 -23 0 -34 -37 -34 -117 -1 -114 -12 -160 -48 -192 -29
-27 -30 -33 -37 -137 -8 -113 -1 -377 11 -408 4 -10 17 -22 31 -27 30 -11 43
-46 43 -119 0 -59 15 -90 44 -90 16 0 33 -34 41 -82 5 -31 11 -39 33 -44 40
-10 52 -23 52 -59 0 -28 4 -33 32 -41 18 -6 38 -20 45 -34 6 -13 28 -32 47
-42 19 -10 37 -27 41 -38 3 -11 15 -20 25 -20 10 0 32 -13 50 -30 18 -16 37
-30 44 -30 6 -1 29 -9 51 -20 22 -11 50 -19 61 -20 12 0 24 -7 28 -15 3 -8 18
-15 33 -15 15 0 48 -8 73 -16 65 -24 406 -24 469 0 24 9 58 16 76 16 18 0 38
6 44 14 7 8 27 17 45 20 19 4 39 13 46 21 7 8 24 15 37 15 15 0 36 12 53 30
15 17 36 30 47 30 10 0 25 13 34 29 10 17 28 30 45 34 20 4 32 14 40 35 8 21
20 31 42 35 29 6 33 11 46 67 3 15 18 31 38 40 27 12 34 22 39 54 5 28 16 47
43 70 37 30 38 33 45 121 7 85 28 145 51 145 20 0 30 75 30 230 0 159 -10 230
-31 230 -21 0 -42 80 -50 190 -7 112 -8 115 -38 140 -35 28 -51 73 -51 143 0
43 -4 52 -39 85 -32 30 -40 46 -45 87 -4 35 -13 55 -28 67 -13 10 -28 22 -35
28 -7 5 -15 27 -18 47 -12 72 -15 78 -45 95 -33 19 -35 23 -45 81 -5 31 -12
41 -39 52 -33 14 -46 37 -46 82 0 16 -12 28 -40 43 -35 18 -40 25 -40 56 0 29
-6 38 -35 55 -40 24 -55 46 -55 83 0 20 -9 30 -37 43 -40 19 -50 41 -52 109
-2 77 8 103 50 124 27 14 39 28 44 50 5 22 14 32 33 36 36 9 52 23 52 45 0 12
15 26 39 39 22 11 42 28 45 38 4 11 24 27 46 37 22 10 38 21 35 25 -8 14 25
47 53 53 17 4 33 16 40 31 6 15 23 28 39 32 15 4 39 18 52 31 13 12 30 23 37
23 8 0 24 11 36 25 12 14 29 25 38 25 10 0 29 9 43 20 14 11 30 20 36 20 6 0
11 5 11 10 0 6 6 10 14 10 7 0 25 9 39 20 14 11 34 20 44 20 11 0 28 7 39 15
10 8 26 15 34 15 8 0 33 9 55 20 24 12 62 20 95 20 30 0 75 7 100 14 62 20
266 20 300 1z m-1646 -1131 c9 -8 16 -22 16 -30 0 -7 18 -23 40 -34 33 -17 40
-26 40 -49 0 -45 9 -59 46 -71 23 -8 36 -19 39 -36 3 -13 7 -34 10 -46 3 -13
19 -30 37 -39 29 -14 34 -22 40 -65 7 -47 27 -74 55 -74 18 0 33 -33 33 -74 0
-36 21 -66 45 -66 19 0 35 -32 35 -68 0 -49 12 -92 25 -92 15 0 65 -38 64 -48
-1 -4 -1 -34 0 -68 1 -57 4 -64 40 -100 l39 -40 7 -218 c8 -237 0 -473 -18
-495 -6 -7 -21 -17 -34 -22 -13 -5 -25 -20 -28 -36 -12 -53 -26 -75 -55 -86
-18 -7 -31 -21 -35 -36 -8 -30 -21 -41 -52 -41 -15 0 -28 -10 -37 -29 -10 -19
-26 -30 -46 -35 -17 -3 -38 -13 -46 -21 -9 -8 -25 -15 -37 -15 -13 0 -33 -7
-45 -16 -35 -24 -433 -25 -479 -1 -18 10 -41 17 -52 17 -11 0 -26 6 -33 13 -7
8 -30 19 -50 26 -20 7 -39 19 -42 27 -3 8 -21 21 -41 30 -22 9 -37 23 -41 39
-4 16 -17 28 -40 35 -33 11 -38 19 -46 75 -2 11 -20 31 -40 44 -33 21 -38 30
-45 80 -10 70 -9 535 1 616 7 50 14 65 42 92 32 29 36 40 44 110 5 47 13 79
21 82 28 9 59 51 59 79 0 37 19 92 31 92 6 0 21 11 34 25 18 17 25 35 25 63 0
42 26 82 53 82 10 0 19 11 22 25 3 14 7 37 10 51 4 17 16 30 35 37 28 11 42
33 54 88 3 16 17 30 38 40 19 8 34 23 36 34 8 54 15 67 52 90 22 14 40 32 40
40 0 34 104 49 134 19z"/>
<path d="M16687 7054 c-3 -4 -6 -773 -7 -1710 l0 -1704 255 0 c280 0 278 -1
234 59 -18 25 -20 39 -16 137 2 60 9 170 16 244 9 91 11 188 6 295 -4 88 -8
237 -7 330 4 990 2 1267 -8 1490 -14 326 -10 819 8 837 6 6 12 16 12 20 0 9
-484 11 -493 2z"/>
<path d="M17850 7053 c4 -81 -13 -625 -22 -698 -15 -128 -14 -410 2 -712 10
-181 10 -283 2 -428 -6 -120 -8 -421 -5 -820 4 -346 6 -658 6 -692 l0 -63 193
0 194 0 0 129 c0 71 4 141 9 154 5 13 23 29 39 36 25 11 35 10 62 -4 18 -9 35
-26 37 -36 4 -12 17 -22 35 -26 32 -6 58 -37 58 -69 0 -15 9 -24 33 -30 19 -6
37 -20 45 -37 9 -18 21 -27 37 -27 26 0 55 -24 55 -46 0 -8 8 -14 18 -14 9 0
34 -9 55 -20 20 -11 45 -20 56 -20 10 0 24 -7 31 -15 7 -8 25 -15 40 -15 15 0
47 -7 70 -15 50 -18 329 -21 361 -5 10 6 48 13 84 17 36 3 65 10 65 14 0 5 18
13 39 19 22 6 52 17 68 25 15 8 33 15 40 15 7 0 23 11 37 25 14 14 33 25 42
25 9 0 25 11 35 24 11 14 32 26 47 28 19 2 28 9 30 26 2 15 16 29 40 40 20 9
39 17 41 19 2 1 6 16 10 34 5 25 14 34 41 43 28 9 36 17 38 41 4 36 28 65 54
65 22 0 38 36 38 85 0 30 5 37 40 55 l40 20 0 71 c0 64 3 73 28 98 15 15 33
30 39 32 9 3 16 67 23 216 13 250 -1 675 -22 682 -7 2 -25 17 -40 32 -24 24
-28 36 -28 86 0 66 -4 74 -43 91 -31 13 -33 18 -42 84 -5 38 -10 47 -30 52
-34 9 -55 33 -55 64 0 22 -8 30 -39 43 -29 13 -40 24 -46 47 -4 22 -14 32 -33
37 -36 9 -52 23 -52 46 0 12 -7 19 -19 19 -33 0 -52 12 -62 37 -5 15 -20 26
-39 29 -16 4 -35 13 -41 20 -6 8 -21 14 -33 14 -11 0 -34 9 -51 20 -16 11 -37
20 -46 20 -9 0 -30 7 -45 15 -16 8 -36 15 -45 15 -9 0 -30 7 -45 15 -37 19
-343 22 -377 3 -12 -6 -49 -17 -82 -24 -84 -17 -147 -42 -162 -64 -7 -10 -26
-21 -43 -25 -16 -4 -33 -13 -37 -20 -5 -7 -24 -17 -43 -22 -25 -7 -36 -16 -38
-31 -2 -14 -18 -30 -41 -42 -32 -16 -39 -26 -45 -59 -6 -42 -27 -61 -67 -61
-13 0 -32 -9 -44 -20 l-22 -21 -15 43 c-12 32 -14 60 -9 108 4 36 5 321 3 635
l-4 570 -224 3 c-123 1 -224 -1 -224 -5z m1275 -1407 c11 -7 51 -16 88 -18 42
-4 75 -12 86 -22 10 -9 25 -16 33 -16 29 0 49 -12 58 -35 5 -13 21 -26 37 -30
37 -9 53 -23 53 -46 0 -13 7 -19 21 -19 39 0 59 -19 59 -54 0 -36 12 -52 45
-58 28 -5 45 -44 45 -106 0 -46 3 -54 23 -61 58 -22 57 -17 57 -337 0 -170 -4
-303 -10 -313 -5 -10 -23 -24 -40 -31 -29 -12 -30 -15 -30 -71 0 -64 -21 -99
-60 -99 -13 0 -21 -9 -25 -27 -13 -66 -20 -77 -53 -87 -21 -6 -32 -15 -32 -27
0 -26 -28 -49 -60 -49 -15 0 -30 -7 -33 -15 -4 -8 -23 -23 -44 -33 -21 -11
-51 -27 -68 -36 -16 -9 -45 -16 -63 -16 -18 0 -49 -7 -69 -15 -71 -30 -303
-12 -398 30 -16 8 -41 17 -55 21 -13 4 -37 20 -51 35 -15 16 -34 29 -42 29 -9
0 -25 14 -37 30 -12 17 -29 30 -39 30 -24 0 -41 20 -41 47 0 16 -11 30 -32 43
-53 30 -58 38 -58 84 0 40 -4 46 -35 64 -40 24 -42 31 -49 177 -3 61 -12 130
-21 154 -19 56 -19 99 1 147 10 25 18 85 23 169 l6 130 38 24 c33 22 37 29 37
68 0 48 25 83 60 83 13 0 22 9 26 28 9 35 32 62 55 62 10 0 25 13 34 30 11 20
26 33 46 37 16 3 34 14 40 24 6 11 21 19 36 19 15 0 34 7 43 15 9 8 49 19 87
24 39 5 79 14 89 20 28 16 195 14 219 -3z"/>
<path d="M23470 5350 l0 -1710 220 0 220 0 0 140 0 139 30 30 c16 17 32 26 35
21 3 -6 15 -10 26 -10 27 0 59 -35 59 -65 0 -20 7 -26 39 -35 35 -9 40 -14 46
-49 6 -35 10 -40 41 -46 27 -5 38 -13 46 -36 6 -18 17 -29 29 -29 10 0 36 -9
56 -20 21 -11 45 -20 54 -20 9 0 22 -7 29 -15 7 -8 23 -15 36 -15 12 0 29 -7
38 -15 8 -8 27 -15 43 -15 15 -1 39 -7 53 -15 37 -21 336 -21 376 0 16 8 50
15 77 15 28 0 62 8 84 20 21 11 44 20 51 20 8 0 25 9 39 20 14 11 32 20 40 20
9 0 24 11 34 24 11 14 32 26 47 28 17 2 31 12 39 29 8 17 24 29 42 32 19 4 34
16 43 34 8 16 25 31 44 36 25 7 33 17 40 46 7 29 16 38 44 47 31 10 36 16 41
53 6 47 5 45 44 58 27 9 31 15 36 62 8 57 19 75 58 94 24 11 26 18 31 97 5 87
17 117 59 146 21 15 21 21 21 379 l0 365 -26 16 c-39 26 -54 65 -54 141 0 77
-3 84 -45 104 -26 12 -31 22 -40 74 -8 47 -15 61 -30 63 -33 6 -55 33 -55 67
0 35 -13 51 -45 57 -11 2 -27 18 -36 37 -9 20 -28 39 -47 47 -18 7 -37 25 -42
39 -6 15 -22 30 -40 37 -17 5 -35 19 -41 29 -5 10 -19 19 -30 19 -12 0 -34 14
-49 30 -15 17 -35 30 -44 30 -9 0 -33 9 -53 20 -21 11 -45 20 -53 20 -9 0 -20
4 -26 9 -5 6 -27 14 -49 20 -22 5 -58 15 -80 20 -62 16 -342 13 -390 -4 -22
-8 -47 -15 -55 -15 -8 0 -33 -9 -55 -20 -22 -11 -47 -19 -56 -20 -9 0 -22 -7
-29 -15 -7 -8 -23 -15 -36 -15 -16 0 -28 -9 -38 -29 -11 -20 -25 -31 -51 -35
-24 -5 -35 -12 -35 -24 0 -26 -20 -42 -52 -42 -21 0 -28 -5 -28 -20 0 -34 -22
-68 -48 -75 -15 -4 -41 -22 -60 -41 -37 -38 -50 -41 -92 -19 -36 18 -45 49
-34 113 4 26 8 314 9 639 l0 593 -227 0 -228 0 0 -1710z m1335 296 c11 -7 47
-17 80 -21 61 -7 115 -28 115 -44 0 -5 12 -12 28 -16 15 -3 35 -14 45 -23 10
-9 32 -21 49 -27 22 -7 34 -20 42 -44 8 -25 19 -36 46 -45 32 -10 35 -15 38
-53 3 -37 7 -44 30 -49 42 -10 52 -23 52 -68 0 -81 11 -116 40 -131 44 -23 50
-59 49 -284 0 -227 -7 -268 -51 -289 -27 -13 -30 -23 -40 -147 -2 -24 -11 -34
-40 -48 -34 -17 -38 -23 -38 -57 0 -41 -18 -60 -58 -60 -13 0 -22 -10 -28 -32
-7 -23 -18 -34 -44 -43 -18 -6 -36 -18 -38 -26 -6 -18 -22 -29 -45 -29 -11 0
-30 -9 -44 -20 -14 -11 -35 -20 -47 -20 -11 0 -30 -7 -40 -15 -11 -8 -30 -15
-43 -15 -13 0 -35 -7 -48 -16 -20 -13 -46 -15 -142 -11 -118 4 -182 16 -236
43 -16 8 -37 14 -46 14 -10 0 -30 9 -44 20 -14 11 -34 20 -45 20 -24 0 -52 25
-52 45 0 8 -15 17 -36 21 -19 4 -37 12 -39 18 -2 6 -6 23 -9 37 -4 19 -17 30
-46 42 -39 15 -40 17 -40 61 0 43 -2 47 -35 63 -39 19 -42 26 -48 127 -4 61
-8 72 -32 89 -40 30 -46 58 -46 222 0 161 7 198 47 230 21 17 25 31 32 110 l7
90 38 18 c33 17 37 23 37 57 0 30 6 43 26 59 15 12 33 21 40 21 7 0 17 15 22
33 7 26 15 34 45 41 25 7 37 15 37 27 0 20 28 39 58 39 11 0 25 7 32 15 7 8
21 15 31 15 11 0 36 9 56 20 21 11 49 20 63 20 14 0 30 4 36 9 15 15 44 19
154 20 75 1 111 -3 125 -13z"/>
<path d="M8171 6891 c-9 -6 -11 -20 -6 -50 4 -23 8 -752 8 -1621 l2 -1580 652
0 c384 0 654 4 657 9 4 5 41 13 84 16 42 4 86 14 97 21 11 8 32 14 47 14 15 0
37 4 50 9 104 41 135 55 148 66 8 7 26 16 40 20 14 4 32 13 40 20 8 7 27 15
42 19 16 3 32 18 40 34 9 18 22 28 42 30 22 3 31 12 44 43 11 30 22 41 46 47
27 7 32 13 37 52 6 42 28 70 56 70 21 0 33 35 33 95 0 57 4 65 64 113 24 19
24 423 0 446 -8 9 -19 16 -24 16 -19 0 -40 61 -40 117 0 84 -8 103 -42 110
-32 6 -48 29 -48 67 0 18 -9 29 -37 43 -27 13 -40 27 -47 50 -7 25 -15 32 -42
38 -25 4 -35 12 -40 30 -4 18 -17 28 -45 35 -21 6 -39 15 -39 20 0 5 -16 12
-35 16 -23 4 -43 17 -56 35 l-20 29 20 29 c12 16 34 32 50 36 16 3 33 16 39
30 6 14 27 31 47 39 27 11 35 21 35 40 0 27 23 56 45 56 25 0 45 31 45 71 0
34 5 42 40 65 l40 27 -2 311 c-3 306 -3 311 -24 321 -44 22 -54 37 -54 81 0
46 -5 54 -57 84 -23 14 -33 27 -33 43 0 19 -8 26 -32 33 -20 6 -38 20 -46 36
-7 16 -26 31 -47 38 -19 6 -37 19 -40 30 -3 11 -19 20 -39 24 -19 4 -39 13
-46 21 -7 8 -25 15 -40 15 -15 0 -33 6 -39 14 -6 7 -29 16 -51 20 -22 3 -40
10 -40 14 0 5 -28 14 -62 20 -35 6 -83 15 -108 21 -55 13 -1289 15 -1309 2z
m1191 -448 c8 -7 43 -16 77 -19 47 -5 71 -14 98 -35 20 -16 44 -29 54 -29 10
0 23 -9 29 -20 6 -11 28 -28 48 -38 32 -15 38 -23 43 -60 5 -42 20 -62 46 -62
29 0 38 -45 38 -181 0 -146 -4 -158 -54 -182 -22 -10 -27 -21 -31 -61 -5 -46
-7 -50 -38 -58 -20 -5 -37 -18 -44 -33 -7 -15 -23 -27 -42 -31 -17 -4 -43 -17
-59 -30 -16 -13 -47 -25 -75 -29 -26 -3 -76 -13 -112 -23 -55 -14 -114 -17
-370 -17 -168 0 -313 3 -323 7 -16 7 -17 36 -15 455 l3 447 25 7 c14 4 174 7
356 6 248 -2 335 -5 346 -14z m-52 -1323 c30 -5 90 -13 132 -19 42 -5 90 -17
107 -25 16 -9 39 -16 49 -16 11 0 25 -7 32 -15 7 -8 22 -15 35 -15 12 0 30 -9
41 -21 10 -11 33 -27 51 -34 23 -10 34 -23 41 -46 6 -26 15 -35 40 -41 21 -6
33 -16 36 -31 9 -45 14 -285 7 -397 l-6 -115 -37 -18 c-28 -13 -38 -23 -38
-41 0 -27 -14 -42 -51 -51 -15 -4 -31 -17 -37 -30 -7 -14 -23 -26 -44 -30 -18
-4 -42 -14 -53 -21 -11 -8 -29 -14 -40 -14 -12 0 -27 -6 -33 -12 -7 -7 -50
-18 -95 -25 -45 -6 -106 -17 -135 -23 -61 -13 -649 -10 -669 3 -16 10 -19 993
-3 1017 7 11 35 17 102 21 146 9 507 8 568 -1z"/>
<path d="M11875 6093 c-16 -3 -34 -9 -39 -14 -6 -5 -21 -9 -35 -9 -15 0 -39
-7 -55 -15 -15 -8 -33 -15 -40 -15 -6 -1 -29 -9 -51 -20 -22 -11 -47 -19 -56
-20 -9 0 -22 -7 -29 -15 -7 -8 -24 -15 -39 -15 -15 0 -34 -9 -44 -20 -9 -11
-28 -20 -41 -20 -17 0 -29 -9 -38 -27 -10 -21 -22 -29 -45 -31 -26 -3 -33 -9
-38 -33 -5 -21 -14 -31 -33 -35 -47 -10 -49 -12 -55 -44 -5 -23 -15 -34 -41
-45 -28 -12 -36 -22 -42 -50 -7 -39 -19 -52 -54 -57 -22 -3 -26 -9 -30 -54 -6
-56 -23 -84 -50 -84 -21 0 -30 -19 -30 -68 -1 -57 -17 -116 -36 -127 -57 -33
-54 -10 -54 -445 l0 -401 34 -20 c42 -24 46 -35 53 -126 6 -71 6 -73 39 -83
37 -13 44 -25 44 -86 0 -45 2 -47 51 -58 21 -5 28 -14 35 -48 8 -36 13 -43 36
-46 32 -4 45 -18 50 -56 2 -23 10 -31 38 -40 21 -7 40 -21 47 -37 8 -17 24
-29 43 -33 20 -4 34 -14 40 -31 6 -17 20 -27 40 -31 16 -4 35 -13 41 -20 6 -8
22 -14 34 -14 12 0 34 -9 48 -20 14 -11 32 -20 40 -20 8 0 28 -7 43 -15 16 -8
39 -15 50 -15 12 0 27 -7 34 -15 7 -8 24 -15 39 -15 14 0 48 -7 75 -15 68 -21
390 -21 426 0 14 8 48 14 75 15 28 0 63 7 79 15 15 8 36 15 45 15 9 0 33 9 54
20 20 11 43 20 50 20 8 0 24 11 37 24 12 14 35 28 51 31 16 4 32 13 36 20 5 7
24 17 43 22 25 7 36 16 38 31 2 14 13 24 30 28 47 10 52 13 52 32 0 24 16 38
53 47 19 5 29 15 33 34 9 42 19 56 47 59 20 2 28 10 32 30 17 78 21 87 50 97
40 13 45 22 45 75 0 53 19 85 55 94 24 6 25 9 25 84 1 105 12 148 52 189 l33
34 0 229 0 229 -26 28 c-43 46 -51 71 -57 180 -5 102 -6 104 -33 119 -37 19
-49 43 -49 99 0 43 -2 47 -34 60 -41 18 -49 28 -56 79 -4 35 -9 41 -38 48 -33
9 -36 12 -46 59 -4 19 -14 29 -33 34 -37 9 -53 23 -53 46 0 12 -11 21 -32 27
-21 5 -38 18 -46 35 -8 17 -21 27 -35 27 -28 0 -41 9 -56 38 -6 12 -20 22 -30
22 -10 0 -30 9 -44 20 -14 11 -34 20 -44 20 -10 0 -28 6 -39 14 -11 8 -37 17
-57 21 -20 4 -37 11 -37 15 0 4 -30 11 -67 15 -38 4 -78 13 -90 21 -17 11 -62
14 -205 13 -101 -1 -196 -4 -213 -6z m357 -451 c7 -7 24 -12 38 -12 14 0 42
-9 63 -20 20 -11 45 -20 56 -20 10 0 24 -7 31 -15 7 -8 22 -15 34 -15 28 0 53
-20 58 -45 2 -13 14 -21 37 -26 38 -8 51 -23 51 -61 0 -22 6 -27 38 -35 31 -7
37 -13 40 -38 7 -82 12 -92 42 -99 40 -8 50 -36 50 -149 0 -62 5 -100 15 -117
71 -122 74 -214 8 -293 -21 -26 -23 -38 -23 -133 0 -98 -2 -107 -25 -129 -13
-14 -31 -25 -38 -25 -16 0 -27 -30 -27 -76 0 -36 -14 -51 -50 -56 -18 -2 -26
-10 -28 -28 -5 -33 -20 -50 -59 -67 -18 -7 -33 -20 -33 -29 0 -8 -17 -22 -37
-31 -21 -8 -41 -21 -46 -29 -4 -7 -24 -16 -45 -20 -20 -4 -43 -13 -50 -21 -7
-7 -25 -13 -40 -13 -15 0 -49 -7 -76 -15 -64 -19 -237 -20 -274 -1 -15 7 -48
16 -74 20 -26 4 -62 18 -81 31 -19 12 -46 26 -58 30 -13 4 -32 14 -41 22 -9 8
-31 22 -50 31 -19 10 -35 27 -38 42 -4 17 -16 28 -40 36 -31 10 -36 17 -44 57
-7 35 -14 47 -32 51 -41 11 -54 33 -54 93 0 52 -3 59 -39 92 l-38 36 -7 137
c-4 75 -4 200 0 278 7 149 10 157 60 186 15 9 20 26 24 80 5 68 6 69 43 87 23
12 37 26 37 37 0 37 23 70 54 78 19 5 32 16 35 28 5 29 21 44 46 44 12 0 29 7
36 16 8 9 32 25 54 36 22 10 51 25 65 33 13 8 49 17 80 21 30 4 64 13 75 21
25 18 258 14 277 -5z"/>
<path d="M14721 6086 c-6 -7 -30 -17 -53 -20 -23 -4 -47 -11 -53 -15 -5 -5
-21 -11 -35 -14 -45 -10 -112 -37 -127 -52 -8 -8 -25 -15 -37 -15 -13 0 -29
-7 -36 -15 -7 -8 -27 -17 -45 -21 -24 -4 -35 -13 -39 -30 -4 -15 -16 -26 -34
-30 -47 -10 -50 -12 -54 -36 -2 -17 -12 -25 -40 -32 -29 -7 -37 -15 -42 -37
-4 -21 -13 -30 -33 -35 -41 -10 -53 -23 -53 -55 0 -24 -7 -32 -37 -46 -32 -15
-38 -23 -41 -53 -5 -66 -12 -80 -50 -98 -36 -17 -37 -18 -42 -85 -5 -69 -22
-97 -57 -97 -18 0 -21 -23 -29 -215 -9 -209 -9 -280 1 -512 l8 -181 36 -24
c35 -23 36 -24 39 -96 3 -71 3 -72 37 -86 40 -17 55 -42 55 -90 0 -28 4 -36
18 -36 35 0 62 -29 62 -66 0 -32 4 -37 41 -52 30 -12 42 -22 46 -43 4 -22 13
-29 41 -36 27 -6 38 -15 42 -33 4 -18 15 -27 42 -33 28 -7 39 -16 47 -38 8
-24 16 -29 41 -29 17 0 33 -6 36 -14 3 -7 22 -16 44 -20 21 -3 40 -12 43 -18
2 -7 31 -21 63 -31 33 -10 72 -25 87 -33 16 -8 38 -14 50 -14 12 0 40 -7 62
-15 58 -21 391 -21 442 0 19 8 48 15 64 15 61 0 226 63 282 108 16 12 35 22
44 22 8 0 26 9 40 20 14 11 34 20 44 20 10 0 25 13 34 29 9 18 26 32 43 36 20
4 33 16 43 38 8 19 27 38 46 46 21 9 34 23 38 42 7 31 31 55 60 61 16 2 21 13
25 48 4 40 9 47 43 63 34 16 37 21 38 60 2 71 12 97 44 115 17 9 33 22 37 27
4 6 8 48 8 95 0 106 13 152 51 191 l30 31 -3 181 -3 182 -35 54 c-33 51 -35
58 -40 169 -5 106 -7 117 -26 127 -44 22 -53 36 -59 101 -7 62 -9 65 -37 71
-33 6 -48 29 -48 70 0 36 -8 46 -45 58 -22 8 -31 19 -38 46 -7 30 -16 39 -48
52 -31 12 -39 21 -39 40 0 20 -6 26 -35 31 -25 5 -39 15 -50 36 -10 20 -23 30
-38 30 -13 0 -33 11 -45 25 -12 14 -28 25 -36 25 -8 0 -27 11 -42 25 -15 14
-37 25 -49 25 -13 0 -28 7 -35 15 -7 8 -22 15 -34 15 -11 0 -33 6 -48 14 -14
8 -55 17 -90 21 -34 4 -72 14 -83 21 -28 20 -437 20 -454 0z m361 -440 c24 -8
62 -16 86 -19 24 -3 51 -12 61 -21 10 -9 29 -16 43 -16 14 0 33 -8 42 -19 9
-10 30 -21 46 -25 20 -4 31 -13 36 -30 3 -15 15 -27 32 -31 38 -9 51 -22 58
-61 4 -24 12 -34 25 -34 34 0 59 -36 59 -85 0 -42 2 -46 39 -65 36 -18 40 -24
46 -72 10 -69 10 -587 0 -656 -6 -48 -10 -54 -43 -70 -35 -16 -37 -20 -40 -71
-3 -52 -4 -53 -43 -69 -32 -12 -39 -20 -39 -42 0 -31 -16 -48 -57 -59 -17 -5
-29 -16 -33 -31 -4 -15 -17 -27 -38 -34 -17 -6 -38 -21 -47 -32 -8 -12 -27
-25 -42 -28 -16 -4 -41 -13 -58 -20 -78 -36 -328 -59 -384 -37 -14 6 -52 16
-84 21 -37 6 -69 18 -88 35 -17 14 -37 25 -45 25 -8 0 -22 8 -32 18 -10 10
-33 22 -52 28 -24 7 -36 17 -40 34 -4 15 -19 31 -39 41 -39 18 -51 35 -51 71
0 21 -8 30 -37 45 -34 16 -38 23 -41 58 -4 67 -11 84 -42 100 -47 24 -52 59
-48 368 l3 279 27 23 c15 13 32 25 38 27 6 2 14 30 17 63 6 65 21 90 59 99 18
5 24 13 24 34 0 37 18 61 55 70 19 6 31 16 35 32 4 17 16 27 40 34 19 6 43 20
52 32 10 12 30 25 45 29 16 3 36 13 45 22 9 8 45 17 79 20 35 4 74 12 88 19
34 18 188 18 243 0z"/>
<path d="M21785 6085 c-22 -8 -47 -15 -55 -15 -8 0 -33 -9 -55 -20 -22 -11
-47 -19 -56 -20 -9 0 -22 -7 -29 -15 -7 -8 -23 -15 -36 -15 -16 0 -28 -10 -39
-30 -11 -21 -25 -31 -50 -36 -24 -4 -35 -12 -35 -24 0 -22 -17 -36 -52 -45
-26 -7 -38 -28 -38 -73 0 -17 -9 -27 -37 -38 -21 -8 -45 -19 -54 -23 -13 -7
-21 -1 -38 29 -18 32 -21 54 -21 154 l0 116 -220 0 -220 0 0 -1195 0 -1195
225 0 225 0 -1 753 c0 462 4 763 10 779 5 14 22 34 38 46 25 18 28 27 33 94 5
73 5 73 43 91 27 13 37 23 37 41 0 26 28 56 53 56 8 0 25 14 37 30 13 19 30
30 44 30 13 0 29 6 35 14 7 8 44 24 84 36 40 13 86 29 104 36 38 17 181 18
220 3 15 -7 55 -15 88 -20 46 -6 64 -13 80 -32 11 -14 33 -29 48 -33 20 -4 32
-16 39 -35 6 -17 17 -29 27 -29 9 0 27 -7 39 -16 18 -12 22 -25 22 -64 0 -45
3 -50 25 -56 57 -14 55 25 55 -886 l0 -838 225 0 225 0 0 899 c0 539 -4 910
-9 924 -6 14 -20 28 -31 32 -29 9 -50 62 -50 124 0 62 -7 81 -30 81 -29 0 -50
28 -50 66 0 29 -5 36 -32 47 -37 16 -54 33 -59 61 -3 11 -18 23 -39 30 -24 8
-36 19 -40 36 -4 19 -13 26 -38 28 -17 2 -37 11 -44 20 -20 27 -112 70 -165
78 -26 3 -60 13 -75 20 -38 20 -308 19 -363 -1z"/>
</g>
</svg>
